<svg viewBox="0 0 409.353 94.902" xmlns="http://www.w3.org/2000/svg" xmlns:xlink="http://www.w3.org/1999/xlink"><clipPath id="a"><path d="m0 0h409.353v94.902h-409.353z"/></clipPath><g clip-path="url(#a)" fill="#003087" fill-rule="evenodd"><path d="m26.522 0h30.1c3.116.726 5.416 2.309 6.121 5.361.825 3.58-1 7.45-1.529 10.857h-46.168c.973-8.403 3.812-14.847 11.476-16.218"/><path d="m101.634 14.612c-2.647.255-5.26.548-7.908.8-.547-4.2-2.694-6.732-7.522-6.164a9.536 9.536 0 0 0 -6.633 4.556c-3.485 5.6-4.761 16.581.893 19.436 5.517 2.786 10.244-2.821 11.1-7.1 2.728.482 5.55.867 8.288 1.341-2.883 8.255-7.985 14.5-19 13.672-10.192-.769-13.876-11.08-11.864-21.984 1.66-9 7.5-16.786 16.959-17.56 9.657-.789 14.578 4.456 15.687 13"/><path d="m340.1 14.342c-2.665.152-4.961.685-7.654.8-1.21-4.452-3.963-6.817-9.054-6.3-7.334.747-11.4 9.729-10.709 17.963a9.462 9.462 0 0 0 1.272 4.156c2.7 4.173 10.75 3.006 14.791.669.255-1.61.619-3.1.895-4.691-2.764-.314-6.082-.046-9.057-.134.59-2.332.963-4.89 1.534-7.238h16.706c-1 5.7-2.129 11.257-3.317 16.755a25.545 25.545 0 0 1 -13.136 4.826c-13.469.966-19-7.33-17.6-19.57 1.212-10.521 7.961-19.178 18.239-19.969 10.145-.784 15.463 4.243 17.09 12.733"/><path d="m109.285 2.279h8.162c-.933 4.784-1.976 9.451-2.807 14.343 3.913.313 8.375.045 12.5.134 1.06-4.739 1.951-9.655 2.934-14.477h8.287c-2.571 12.713-5.067 25.5-7.65 38.2h-8.29c1.158-5.441 2.211-10.991 3.315-16.488-3.91-.311-8.373-.044-12.5-.133-1.336 5.347-2.236 11.147-3.441 16.623h-8.295c2.684-12.64 4.975-25.691 7.78-38.2"/><path d="m154.81 2.279h8.927c1.783 12.872 3.869 25.422 5.739 38.2h-7.906c-.258-2.77-.819-5.217-1.021-8.043-4.168-.312-8.883-.045-13.262-.134-1.687 2.516-2.894 5.537-4.464 8.177h-8.417a5.164 5.164 0 0 1 .894-2.279c2.836-5.348 5.975-11.083 8.925-16.622 3.481-6.53 7.153-13.042 10.586-19.3m-3.825 22.787h8.414c-.6-4.281-.962-8.818-1.913-12.733-2.037 4.385-4.434 8.386-6.5 12.733"/><path d="m180.7 2.279h8.161c-1.947 10.421-4.1 20.623-6.121 30.964 5.738.311 12.029.044 17.981.134-.362 2.48-.887 4.787-1.4 7.1h-26.275c2.516-12.771 5.015-25.557 7.652-38.2"/><path d="m210.92 2.279h8.161c-1.934 10.431-4.09 20.632-6.119 30.964 5.781.311 12.113.044 18.108.134-.606 2.267-.937 4.826-1.533 7.1h-26.268c2.525-12.761 5.023-25.55 7.651-38.2"/><path d="m241.27 2.279h26.909c-.42 2.464-.993 4.765-1.4 7.238h-18.749c-.75 2.25-1.063 4.958-1.658 7.374 5.824.311 12.2.044 18.234.134-.415 2.421-.973 4.695-1.4 7.1h-18.106c-1.01 2.692-1.425 6.011-2.041 9.115 6.545.311 13.646.044 20.4.134-.451 2.381-.974 4.694-1.4 7.1h-28.566c2.479-12.631 5.024-25.189 7.524-37.8a.371.371 0 0 1 .253-.4"/><path d="m281.7 2.279c2.914 7.924 5.949 15.727 9.05 23.457 1.687-7.7 3.185-15.6 4.719-23.457h7.778c-2.424 12.819-5.126 25.351-7.525 38.2h-7.649c-2.883-7.961-6.067-15.6-8.928-23.59-1.887 7.576-3.239 15.717-4.844 23.59h-7.777c2.506-12.778 5-25.568 7.651-38.2z"/><path d="m348.517 2.279h26.906c-.417 2.464-1 4.752-1.4 7.238h-18.745c-.769 2.229-1.063 4.959-1.657 7.374 5.822.311 12.2.044 18.234.134-.433 2.4-.962 4.706-1.4 7.1h-18.238c-.77 2.9-1.374 5.973-1.915 9.115 6.548.311 13.646.044 20.4.134-.441 2.394-1 4.67-1.4 7.1h-28.562c2.6-12.72 4.9-25.769 7.777-38.2"/><path d="m381.419 2.279c8.446.968 19.854-2.136 24.867 2.279 2.006 1.766 3.061 4.826 3.061 8.042 0 6.721-4.288 11.013-10.2 11.929 3.031 4.236 5.507 10.207 7.526 15.952h-8.8c-.738-2.424-1.869-5.257-3.06-8.176-1.7-4.17-2.85-8.34-9.564-7.239-1.319 4.87-2.178 10.224-3.187 15.415h-8.291c2.5-12.786 5-25.57 7.651-38.2m4.973 16.22c6.013.088 12.9.491 14.539-4.021 2.505-6.911-7.615-4.6-12.626-4.96-.837 2.782-1.246 6.016-1.913 8.981"/><path d="m14.153 20.643h46.035c-1.14 5.012-2.314 9.99-3.444 15.013h-45.906c.937-4.957 2.092-9.685 3.06-14.61.109-.108.075-.366.255-.4"/><path d="m9.944 40.079h40.3a43.038 43.038 0 0 1 5.994 0c.877.151 1.311 1.915 1.785 2.547 2.533 3.388 7.663 2.814 13.773 2.814h335c-.54 3.5-1.154 6.921-1.915 10.189h-398.381c1.179-5.151 2.12-10.55 3.443-15.55"/><path d="m5.609 60.052h123.824c-.969 5.461-2.2 10.647-3.188 16.084h-124.08c1.063-5.454 2.219-10.8 3.444-16.084"/><path d="m158.379 65.549c-1.179-.036-2.005.3-3.186.265a3.461 3.461 0 0 0 -4.846-2.143c-2.546 1.133-4.248 6.9-2.039 8.711 1.236 1.016 3.589.427 5.227-.267.037-.544.219-.931.254-1.475-.935-.313-2.421-.046-3.569-.133.239-1.045.4-2.172.637-3.217h7.013c-.326 2.427-.939 4.552-1.275 6.971-4.67 3.242-12.516 2.969-12.752-4.289-.169-5.171 3.336-9.71 7.78-9.92 3.465-.166 6.459 1.709 6.756 5.5"/><path d="m179.8 60.186a6.363 6.363 0 0 1 5.356 1.742c2.576 2.883 1.8 9.367-1.4 12.333-3.822 3.539-11.156 2.371-11.475-4.161a12.594 12.594 0 0 1 2.551-7.641 6.968 6.968 0 0 1 4.973-2.278m-1.4 3.753c-1.776 1.139-3.771 6.581-1.4 8.444a3.689 3.689 0 0 0 3.825-.132c2.3-1.665 3.96-9.456-1.019-8.715a3.419 3.419 0 0 0 -1.4.4"/><path d="m247.9 65.682c-1.166-.019-2.049.264-3.191.268-.62-.863-.538-1.893-1.4-2.281-5.012-2.232-7.383 8.858-3.062 9.249 2.01.183 2.731-1.355 3.444-3.084 1.229.139 2.341.4 3.569.538-.411 4.685-7.181 8.009-10.963 4.56a6.941 6.941 0 0 1 -1.916-4.56c-.4-4.889 2.49-10.053 7.4-10.32 3-.164 6.442 1.976 6.124 5.63"/><path d="m260.783 65.279c-.906.3-2.439-.063-3.317.27-.36-.553-.079-1.3-.764-1.88-1.049-.872-3.287-.426-3.443.537-.252 1.547 2.038 1.9 2.8 2.281 2.052 1.024 4.083 2.007 3.824 4.958-.543 6.289-12.5 6.99-11.858-1.073 1.288.106 2.213-.177 3.444-.135.184.835-.11 1.269.253 1.878.965 1.614 4.653.817 4.592-.67-.036-.956-2.014-1.692-2.932-2.145a8.138 8.138 0 0 1 -3.06-2.01 5.105 5.105 0 0 1 -.128-4.826c2.108-4.011 11.234-3.087 10.585 2.815"/><path d="m324.416 60.052h79.7c-.929 5.416-2.029 10.645-2.933 16.084h-79.7c.625-4.97 1.885-10.436 2.678-15.683.107-.107.075-.366.254-.4"/><path d="m172.409 60.319c.122.91-.431 2.211-.509 3.35h-7.525a11.022 11.022 0 0 0 -.51 2.415c2.169.313 4.889.043 7.269.133-.254 1.027-.45 2.121-.64 3.218h-7.267a20.356 20.356 0 0 0 -.766 3.218h8.163c-.16 1.172-.467 2.187-.638 3.348h-11.732c1.032-5.259 1.944-10.647 3.189-15.682z"/><path d="m199.317 67.154c-1.508 2.752-2.538 6-3.954 8.847h-3.315c-.081-3.041-.182-6.064-.383-8.979-.649 2.893-1.121 5.97-1.657 8.979h-3.316c.9-5.355 1.97-10.53 3.06-15.68h4.717c.169 2.86.268 5.793.384 8.711 1.415-2.756 2.634-5.718 3.826-8.711h4.846c-.666 4.927-1.732 10.6-2.678 15.68h-3.317c.571-2.972 1.113-5.98 1.787-8.847"/><path d="m213.981 60.319c.695 5.306 1.7 10.279 2.3 15.682h-3.445c-.035-1.166-.364-2.031-.381-3.216a36.294 36.294 0 0 0 -4.974-.132 19.775 19.775 0 0 0 -1.788 3.347h-3.826q4.047-8.005 8.415-15.682zm-4.847 9.116h2.807c-.307-1.331-.21-3.086-.763-4.156-.6 1.475-1.484 2.642-2.044 4.156"/><path d="m229.794 60.319q-.288 1.706-.638 3.35h-3.951c-1.022 3.931-1.665 8.263-2.552 12.331h-3.572c.605-4.237 1.616-8.042 2.295-12.194-1.063-.315-2.674-.049-3.954-.138-.12-.909.476-2.167.511-3.35z"/><path d="m234.385 60.319c-.946 5.3-2.061 10.435-3.063 15.682h-3.568c.943-5.35 1.857-10.74 3.191-15.682z"/><path d="m272.9 60.319c-.777 4.143-1.614 8.223-2.425 12.334h7.143q-.289 1.7-.637 3.348h-10.84c1.164-5.166 1.888-10.792 3.315-15.682z"/><path d="m290.623 60.319a30.778 30.778 0 0 1 -.637 3.35h-3.955c-.973 3.981-1.617 8.308-2.548 12.332h-3.573c.722-4.2 1.572-8.27 2.423-12.332h-4.078a18.317 18.317 0 0 1 .638-3.35z"/><path d="m291.9 60.319c2.99.211 5.955-.44 8.035.537 4.484 2.107 3.361 10.349.251 13.27-2.967 2.794-6.7 1.556-11.474 1.875 1.036-5.256 1.962-10.626 3.188-15.682m4.719 12.2c3.28-1.451 4.479-10.764-1.661-8.847a79.271 79.271 0 0 0 -1.91 9.114c1.341-.114 2.44.235 3.571-.267"/><path d="m307.071 72.382c-.137 1.28-.46 2.374-.636 3.618h-3.444c.142-1.28.463-2.374.637-3.618z"/><path d="m1.273 80.423h399.019c-.823 4.809-1.67 9.6-2.682 14.208h-381.672c-3.6 0-9.354.751-11.986-.264-4.452-1.72-4.758-8.421-2.807-13.541-.01-.19-.021-.379.128-.4"/></g></svg>