<?xml version="1.0" encoding="UTF-8"?>
<!DOCTYPE svg PUBLIC "-//W3C//DTD SVG 1.1//EN" "http://www.w3.org/Graphics/SVG/1.1/DTD/svg11.dtd">
<!-- Creator: CorelDRAW 2018 (64-Bit) -->
<svg xmlns="http://www.w3.org/2000/svg" xml:space="preserve" width="3.07974in" height="2.37555in" version="1.1" style="shape-rendering:geometricPrecision; text-rendering:geometricPrecision; image-rendering:optimizeQuality; fill-rule:evenodd; clip-rule:evenodd"
viewBox="0 0 3079.75 2375.56"
 xmlns:xlink="http://www.w3.org/1999/xlink">
 <defs>
  <style type="text/css">
   <![CDATA[
    .fil0 {fill:black}
   ]]>
  </style>
 </defs>
 <g id="Layer_x0020_1">
  <metadata id="CorelCorpID_0Corel-Layer"/>
  <path class="fil0" d="M-0 225.78l174.74 0 0 1920.1c370.04,2.04 1037.6,-113.48 1272.73,229.68l-1447.47 0 0 -2149.78zm2823.06 -211.38c-472.06,-10.56 -972.1,-80.73 -1195.67,223.44l0 1994.28c155.89,-227.53 737.02,-183.19 1195.67,-185.69l0 -2032.04zm-2548.34 0c472.06,-10.56 972.1,-80.73 1195.67,223.44l0 1994.28c-155.88,-227.53 -737.01,-183.19 -1195.67,-185.69l0 -2032.04zm2648.33 211.38l156.69 0 0 2149.78 -1429.43 0c227.07,-331.41 908.65,-227.67 1272.73,-229.68l0 -1920.1z"/>
 </g>
</svg>
